<svg xmlns="http://www.w3.org/2000/svg" viewBox="0 0 1024 1024" width="1024" height="1024">
  <path fill="#673AB7" d="M512 96 C309 96 96 280 96 500 C96 740 512 960 512 960 C512 960 928 740 928 500 C928 280 715 96 512 96 Z"/>
  <circle fill="#FFFFFF" cx="512" cy="464" r="240"/>
  <circle fill="#673AB7" cx="372" cy="416" r="56"/>
  <path fill="#673AB7" d="M280 632 C280 540 320 488 372 488 C424 488 464 540 464 632 L280 632 Z"/>
  <circle fill="#673AB7" cx="652" cy="416" r="56"/>
  <path fill="#673AB7" d="M560 632 C560 540 600 488 652 488 C704 488 744 540 744 632 L560 632 Z"/>
  <path fill="#FF9800" d="M404 648 C404 528 452 460 512 460 C572 460 620 528 620 648 L404 648 Z"/>
  <circle fill="#FF9800" cx="512" cy="384" r="64"/>
</svg>
